<svg xmlns="http://www.w3.org/2000/svg" version="1.1" xmlns:xlink="http://www.w3.org/1999/xlink" xmlns:svgjs="http://svgjs.dev/svgjs" width="1000" height="272" viewBox="0 0 1000 272"><g transform="matrix(1,0,0,1,-0.6060560914840494,0.09625544250494045)"><svg viewBox="0 0 396 108" data-background-color="#ffffff" preserveAspectRatio="xMidYMid meet" height="272" width="1000" xmlns="http://www.w3.org/2000/svg" xmlns:xlink="http://www.w3.org/1999/xlink"><defs></defs><g id="tight-bounds" transform="matrix(1,0,0,1,0.23999821222767537,-0.03821907275931835)"><svg viewBox="0 0 395.5199999999999 108.07643814551867" height="108.07643814551867" width="395.5199999999999"><g><svg viewBox="0 0 587.8514762078942 160.63130488252003" height="108.07643814551867" width="395.5199999999999"><g transform="matrix(1,0,0,1,192.33147620789413,46.74577311704441)"><svg viewBox="0 0 395.52 67.13975864843121" height="67.13975864843121" width="395.52"><g><svg viewBox="0 0 395.52 67.13975864843121" height="67.13975864843121" width="395.52"><g><svg viewBox="0 0 395.52 67.13975864843121" height="67.13975864843121" width="395.52"><g transform="matrix(1,0,0,1,0,0)"><svg width="395.52" viewBox="0.8799999952316284 -30.65999984741211 182.05999755859375 30.899999618530273" height="67.13975864843121" data-palette-color="#443c36"><path d="M11.82 0.07Q10.91 0.07 10.5-0.16 10.08-0.39 10.08-0.88L10.08-0.88 10.08-27.08 1.73-27.08Q1.27-27.08 1.07-27.39 0.88-27.71 0.88-28.37L0.88-28.37 0.88-29.08Q0.88-29.76 1.07-30.07 1.27-30.37 1.73-30.37L1.73-30.37 22.09-30.37Q22.56-30.37 22.75-30.07 22.95-29.76 22.95-29.08L22.95-29.08 22.95-28.37Q22.95-27.71 22.75-27.39 22.56-27.08 22.09-27.08L22.09-27.08 13.92-27.08 13.92-0.88Q13.92 0.07 12.16 0.07L12.16 0.07 11.82 0.07ZM24.46 0.07Q23.48 0.07 23.04-0.11 22.6-0.29 22.6-0.66L22.6-0.66Q22.6-0.83 22.73-1.25L22.73-1.25 33.01-29.79Q33.25-30.49 34.74-30.49L34.74-30.49 36.01-30.49Q37.5-30.49 37.74-29.79L37.74-29.79 48.02-1.22Q48.14-0.95 48.14-0.66L48.14-0.66Q48.14 0.07 46.31 0.07L46.31 0.07 45.94 0.07Q44.43 0.07 44.19-0.61L44.19-0.61 41.65-7.74 28.9-7.74 26.41-0.61Q26.19 0.07 24.68 0.07L24.68 0.07 24.46 0.07ZM30.1-11.04L40.48-11.04 35.94-23.95Q35.74-24.49 35.62-25.17 35.5-25.85 35.4-26.49L35.4-26.49 35.3-26.49Q35.01-24.85 34.64-23.95L34.64-23.95 30.1-11.04ZM59.27 0.24Q56.88 0.24 54.82-0.28 52.75-0.81 51.52-1.55 50.29-2.29 50.29-2.91L50.29-2.91Q50.29-3.25 50.57-3.81 50.85-4.37 51.22-4.81 51.58-5.25 51.8-5.25L51.8-5.25Q52-5.25 52.66-4.86L52.66-4.86Q54.17-4.08 55.66-3.56 57.15-3.05 59.27-3.05L59.27-3.05Q60.93-3.05 62.23-3.69 63.52-4.32 64.24-5.48 64.96-6.64 64.96-8.15L64.96-8.15Q64.96-9.77 64.09-10.83 63.23-11.89 61.99-12.51 60.76-13.13 58.42-14.06L58.42-14.06Q55.88-15.04 54.4-15.88 52.92-16.72 51.89-18.33 50.85-19.95 50.85-22.61L50.85-22.61Q50.85-24.93 52.05-26.77 53.24-28.61 55.44-29.64 57.64-30.66 60.49-30.66L60.49-30.66Q61.79-30.66 63.45-30.31 65.11-29.96 66.29-29.35 67.48-28.74 67.48-28L67.48-28Q67.48-27.69 67.22-27.14 66.96-26.59 66.62-26.15 66.28-25.71 66.08-25.71L66.08-25.71Q65.86-25.71 65.2-26.07L65.2-26.07Q64.11-26.66 63.03-27.01 61.96-27.37 60.42-27.37L60.42-27.37Q57.91-27.37 56.35-26.07 54.8-24.78 54.8-22.46L54.8-22.46Q54.8-21.07 55.49-20.17 56.17-19.26 57.22-18.73 58.27-18.19 60.15-17.48L60.15-17.48Q60.27-17.46 60.71-17.29L60.71-17.29Q63.3-16.28 64.95-15.34 66.6-14.4 67.76-12.65 68.92-10.89 68.92-8.15L68.92-8.15Q68.92-5.59 67.73-3.69 66.55-1.78 64.36-0.77 62.18 0.24 59.27 0.24L59.27 0.24ZM76.34 0.07Q74.58 0.07 74.58-0.88L74.58-0.88 74.58-29.52Q74.58-30.49 76.34-30.49L76.34-30.49 76.68-30.49Q78.41-30.49 78.41-29.52L78.41-29.52 78.41-16.24 78.58-16.24 89.25-29.86Q89.54-30.18 90.19-30.33 90.84-30.49 91.62-30.49L91.62-30.49 92.03-30.49Q92.77-30.49 93.16-30.32 93.55-30.15 93.55-29.91L93.55-29.91Q93.55-29.52 93.13-29.03L93.13-29.03 82.29-15.5 95.43-1.22Q95.82-0.81 95.82-0.54L95.82-0.54Q95.82-0.17 95.39-0.05 94.96 0.07 93.91 0.07L93.91 0.07 93.38 0.07Q92.45 0.07 91.9-0.02 91.35-0.12 91.01-0.49L91.01-0.49 78.58-14.45 78.41-14.45 78.41-0.88Q78.41 0.07 76.68 0.07L76.68 0.07 76.34 0.07ZM101.04 0.07Q100.11 0.07 99.7-0.16 99.28-0.39 99.28-0.88L99.28-0.88 99.28-29.52Q99.28-30.49 101.04-30.49L101.04-30.49 102.58-30.49Q104.02-30.49 104.41-29.69L104.41-29.69 112.61-15.45 113.74-12.72 114.86-15.21 123.09-29.69Q123.5-30.49 124.89-30.49L124.89-30.49 126.33-30.49Q128.07-30.49 128.07-29.52L128.07-29.52 128.07-0.88Q128.07 0.07 126.33 0.07L126.33 0.07 126.04 0.07Q125.11 0.07 124.7-0.16 124.28-0.39 124.28-0.88L124.28-0.88 124.28-24.24 124.21-24.05 115.57-9.03Q115.4-8.74 115.18-8.61 114.96-8.47 114.61-8.47L114.61-8.47 112.88-8.47Q112.22-8.47 111.9-9.03L111.9-9.03 103.07-24.49 103.07-0.88Q103.07 0.07 101.33 0.07L101.33 0.07 101.04 0.07ZM137.46 0Q136.78 0 136.46-0.32 136.14-0.63 136.14-1.29L136.14-1.29 136.14-29.08Q136.14-29.76 136.46-30.07 136.78-30.37 137.46-30.37L137.46-30.37 152.6-30.37Q153.06-30.37 153.27-30.08 153.48-29.79 153.48-29.08L153.48-29.08 153.48-28.37Q153.48-27.71 153.27-27.39 153.06-27.08 152.6-27.08L152.6-27.08 139.98-27.08 139.98-17.19 151.31-17.19Q151.77-17.19 151.98-16.87 152.18-16.55 152.18-15.87L152.18-15.87 152.18-15.21Q152.18-14.53 151.98-14.22 151.77-13.92 151.31-13.92L151.31-13.92 139.98-13.92 139.98-3.3 152.65-3.3Q153.11-3.3 153.32-2.99 153.53-2.69 153.53-2L153.53-2 153.53-1.29Q153.53-0.63 153.32-0.32 153.11 0 152.65 0L152.65 0 137.46 0ZM161.31 0.07Q160.39 0.07 159.97-0.16 159.56-0.39 159.56-0.88L159.56-0.88 159.56-29.52Q159.56-30.49 161.31-30.49L161.31-30.49 162.22-30.49Q162.9-30.49 163.3-30.3 163.71-30.1 164.02-29.66L164.02-29.66 177.89-8.74 179.18-6.3 179.18-29.52Q179.18-30.49 180.89-30.49L180.89-30.49 181.24-30.49Q182.94-30.49 182.94-29.52L182.94-29.52 182.94-0.88Q182.94-0.39 182.53-0.16 182.11 0.07 181.24 0.07L181.24 0.07 180.36 0.07Q179.75 0.07 179.38-0.07 179.01-0.22 178.82-0.54L178.82-0.54 164.51-22.12 163.34-24.37 163.34-0.88Q163.34 0.07 161.61 0.07L161.61 0.07 161.31 0.07Z" opacity="1" transform="matrix(1,0,0,1,0,0)" fill="#443c36" class="undefined-text-0" data-fill-palette-color="primary" id="text-0"></path></svg></g></svg></g></svg></g></svg></g><g><svg viewBox="0 0 160.63130488252003 160.63130488252003" height="160.63130488252003" width="160.63130488252003"><g><svg></svg></g><g id="icon-0"><svg viewBox="0 0 160.63130488252003 160.63130488252003" height="160.63130488252003" width="160.63130488252003"><g><path d="M0 80.316c0-44.357 35.959-80.316 80.316-80.316 44.357 0 80.316 35.959 80.315 80.316 0 44.357-35.959 80.316-80.315 80.315-44.357 0-80.316-35.959-80.316-80.315zM80.316 154.577c41.013 0 74.261-33.248 74.261-74.261 0-41.013-33.248-74.261-74.261-74.261-41.013 0-74.261 33.248-74.261 74.261 0 41.013 33.248 74.261 74.261 74.261z" data-fill-palette-color="accent" fill="#89939e" stroke="transparent"></path><ellipse rx="79.51249591684741" ry="79.51249591684741" cx="80.31565244126001" cy="80.31565244126001" fill="#89939e" stroke="transparent" stroke-width="0" fill-opacity="1" data-fill-palette-color="accent"></ellipse></g><g transform="matrix(1,0,0,1,36.44720614096463,36.44720614096463)"><svg viewBox="0 0 87.73689260059076 87.73689260059076" height="87.73689260059076" width="87.73689260059076"><g><svg xmlns="http://www.w3.org/2000/svg" xmlns:xlink="http://www.w3.org/1999/xlink" version="1.1" x="0" y="0" viewBox="1 1 126 126" style="enable-background:new 0 0 128 128;" xml:space="preserve" height="87.73689260059076" width="87.73689260059076" class="icon-x-0" data-fill-palette-color="quaternary" id="x-0"><g fill="#443c36" data-fill-palette-color="quaternary"><path d="M110.937 52.703c-7.691-4.44-16.653-5.62-25.231-3.321-8.267 2.215-15.218 7.411-19.687 14.668 9.403 17.409 3.288 39.323-13.954 49.278-5.771 3.331-12.084 4.915-18.313 4.915-0.632 0-1.264-0.028-1.894-0.062C41.271 123.777 52.257 127 64 127c31.814 0 58.104-23.586 62.378-54.223C124.154 64.602 118.837 57.265 110.937 52.703z" fill="#443c36" data-fill-palette-color="quaternary"></path><path d="M64 1c-8.339 0-16.291 1.635-23.575 4.577C34.448 11.591 30.749 19.872 30.749 29c0 18.01 14.396 32.711 32.285 33.226 4.938-8.026 12.624-13.774 21.766-16.224 9.482-2.54 19.386-1.237 27.887 3.671 6.348 3.666 11.181 8.957 14.295 15.043C126.983 64.476 127 64.24 127 64 127 29.206 98.795 1 64 1z" fill="#443c36" data-fill-palette-color="quaternary"></path><path d="M50.314 110.297c15.598-9.006 21.13-28.825 12.632-44.574C43.168 65.162 27.249 48.91 27.249 29c0-7.337 2.17-14.175 5.891-19.918C13.961 19.882 1 40.421 1 64c0 20.167 9.486 38.105 24.228 49.636C33.414 115.793 42.419 114.854 50.314 110.297z" fill="#443c36" data-fill-palette-color="quaternary"></path></g></svg></g></svg></g></svg></g></svg></g></svg></g></svg><rect width="395.5199999999999" height="108.07643814551867" fill="none" stroke="none" visibility="hidden"></rect></g></svg></g></svg>